<svg width="451" height="498" viewBox="0 0 451 498" fill="none" xmlns="http://www.w3.org/2000/svg">
<path d="M442.457 294.94C441.905 292.155 440.495 289.612 438.424 287.666C437.927 285.025 437.588 282.356 437.409 279.675C436.973 272.025 432.526 267.081 426.977 264.704C426.759 263.274 426.635 261.861 426.387 260.414C425.107 253.546 420.926 249.762 415.925 248.468C414.486 245.808 412.977 243.171 411.337 240.594C409.382 237.321 406.365 234.812 402.786 233.485L402.633 233.285L402.084 232.443C404.372 229.583 405.723 226.117 405.233 222.439C403.34 208.069 400.692 194.069 396.499 180.181C394.683 174.166 390.679 170.653 386.049 169.088C384.96 167.164 383.577 165.421 381.951 163.921C381.75 163.532 381.626 163.109 381.361 162.744C379.067 159.213 375.369 155.512 371.011 154.799C369.719 154.588 368.375 154.429 367.036 154.252C363.911 151.745 360.083 149.95 355.991 150.133C351.721 150.321 346.508 151.681 343.742 155.194C341.731 157.754 339.785 159.902 338.965 163.226C338.153 166.411 338.126 169.745 338.888 172.942C340.155 177.781 343.291 181.922 347.61 184.459C350.37 186.089 353.407 186.783 356.498 187.295C358.18 191.98 359.663 196.715 360.944 201.501C344.909 202.843 335.297 213.53 332.112 226.217C329.309 225.418 326.406 225.022 323.49 225.04C321.827 225.05 320.166 225.189 318.525 225.458C317.209 224.102 315.715 222.93 314.084 221.974C310.436 218.392 305.521 216.387 300.402 216.396H290.66C289.108 216.418 287.565 216.632 286.066 217.031C277.438 217.39 269.553 219.473 261.397 222.916C259.782 223.642 258.302 224.637 257.021 225.858C255.52 222.065 253.284 218.606 250.44 215.677C247.597 212.748 244.202 210.409 240.45 208.792C240.845 208.074 241.311 207.398 241.665 206.65C242.083 205.744 242.461 204.826 242.844 203.908L244.024 201.154C244.024 201.154 244.112 200.972 244.336 200.477C244.802 199.565 245.303 198.712 245.787 197.8C250.982 196.664 255.812 194.569 259.834 190.544C263.147 187.223 265.474 183.051 266.557 178.492C267.071 176.241 267.269 173.929 267.147 171.624L266.475 166.64C266.829 167.316 265.596 161.432 265.49 160.914C264.203 155.375 261.391 150.306 257.369 146.278C252.386 141.529 246.648 138.893 240.232 136.604C231.333 133.426 220.399 139.14 216.507 147.561C213.876 148.499 211.523 150.081 209.666 152.163C195.901 167.834 178.699 184.059 171.563 204.026C135.99 225.882 104.009 253.017 77.4355 285.236C71.7209 292.162 68.2651 300.472 67.7579 308.775C59.3899 318.004 51.9858 328.06 45.6606 338.787C43.3729 340.469 41.5854 342.739 40.4886 345.355C34.6443 358.578 28.5347 371.654 22.3012 384.677C19.8844 386.26 17.9794 388.509 16.8167 391.15C13.2232 398.997 9.62783 406.843 6.03045 414.69C4.08772 418.764 3.79824 423.43 5.22251 427.713C4.61395 430.307 4.27601 432.958 4.21407 435.622C3.2469 482.571 69.6333 513.984 105.006 481.994C136.633 453.394 150.934 402.79 164.828 363.992C165.574 361.892 166.121 359.727 166.462 357.525C168.82 356.727 171.041 355.574 173.049 354.106C175.868 351.999 178.64 349.851 181.406 347.703C182.867 347.197 184.299 346.607 185.693 345.937C197.794 339.688 208.104 330.47 215.651 319.15C227.688 309.328 238.386 298.112 247.102 285.065C250.171 284.605 253.072 283.376 255.535 281.493L258.525 281.093C261.896 280.162 264.968 278.376 267.442 275.908L270.691 273.39C273.05 271.577 274.737 268.282 275.698 264.969C276.341 264.892 276.972 264.916 277.621 264.792C280.552 266.293 283.8 267.075 287.095 267.075C290.39 267.075 293.637 266.293 296.569 264.792C297.987 268.474 300.151 271.823 302.926 274.631C304.012 275.997 305.248 277.237 306.612 278.327C309.626 280.775 312.663 283.376 316.195 285.059C319.239 286.545 322.456 287.646 325.773 288.337C330.045 290.287 334.697 291.27 339.395 291.215C344.838 291.294 350.207 289.953 354.97 287.325C357.595 291.627 360.178 295.952 362.637 300.354C364.629 303.871 367.287 306.969 370.463 309.475C369.724 310.342 369.065 311.274 368.493 312.259C358.11 330.321 352.895 350.879 353.413 371.695C353.348 371.895 353.254 372.048 353.195 372.284C347.074 394.275 353.508 417.597 376.785 425.247C386.668 428.501 398.858 429.131 408.4 424.694C416.574 420.892 421.545 414.436 423.462 406.774C425.473 403.67 426.954 400.253 427.844 396.664C432.385 378.81 433.947 359.59 436.943 341.389C437.402 338.685 437.243 335.913 436.477 333.279C443.354 321.198 444.899 308.598 442.457 294.94ZM103.832 376.297C100.022 386.189 92.3793 394.493 89.7609 404.744C89.2848 406.707 88.2627 408.496 86.8122 409.905C87.6556 412.848 87.402 416.102 85.7271 418.597C84.3531 420.61 82.8551 422.546 81.5459 424.605C80.9702 425.434 80.4633 426.307 80.0303 427.218C79.9123 427.895 79.6941 428.984 79.647 429.225C78.5383 435.428 71.2609 438.346 65.7528 437.093C59.4309 435.657 56.836 429.013 57.8681 423.234C58.965 417.067 62.8042 412.247 66.2246 407.222C66.7787 406.422 67.4173 405.684 68.1295 405.021C67.4711 402.989 67.4158 400.81 67.9702 398.748C70.7125 388.073 78.1962 380.305 82.0531 370.301C84.2469 364.598 89.5722 360.685 95.9413 362.433C101.414 363.939 106.02 370.618 103.832 376.297ZM174.6 294.416C173.585 295.528 172.34 296.408 170.951 296.993C169.562 297.578 168.063 297.855 166.556 297.806C166.379 297.806 166.226 297.765 166.055 297.759C165.884 297.753 165.677 297.806 165.465 297.806C163.955 297.855 162.452 297.574 161.062 296.983C159.671 296.393 158.427 295.507 157.415 294.387C144.488 292.804 144.99 272.06 158.925 272.025C160.208 271.549 161.566 271.304 162.935 271.301C165.124 271.266 167.271 271.907 169.08 273.137C169.204 273.137 169.304 273.101 169.434 273.101C181.972 273.107 183.647 289.785 174.588 294.416H174.6ZM410.187 345.078C409.928 351.199 408.654 357.183 407.504 363.192C407.33 363.973 406.992 364.71 406.514 365.353C406.035 365.996 405.426 366.531 404.726 366.923C405.746 368.947 405.28 371.319 403.812 373.155C402.607 374.69 401.728 376.454 401.229 378.339C401.049 378.994 400.747 379.609 400.339 380.152C399.926 382.429 398.298 384.453 395.302 384.453C391.728 384.453 390.024 381.617 390.118 378.857C389.375 376.603 389.989 373.837 392.023 372.454C391.531 371.359 391.485 370.117 391.894 368.988C392.68 366.753 393.59 364.562 394.618 362.427C394.456 361.51 394.456 360.572 394.618 359.655C395.632 354.359 396.818 349.186 396.906 343.766C396.889 342.58 397.221 341.415 397.86 340.415C398.5 339.415 399.419 338.624 400.504 338.14C401.522 337.47 402.716 337.112 403.936 337.11C408.842 337.128 410.818 341.377 410.175 345.078H410.187Z" fill="white"/>
<path d="M346.921 154.087C349.949 152.312 353.439 151.476 356.946 151.686C357.294 150.839 356.728 149.497 355.59 149.556C353.518 149.657 351.497 150.235 349.686 151.245C347.876 152.254 346.323 153.668 345.151 155.376C345.712 154.908 346.303 154.478 346.921 154.087Z" fill="#050505"/>
<path d="M268.486 178.786C278.128 153.122 249.614 139.081 229.722 133.073C229.605 132.893 229.435 132.753 229.236 132.671C229.037 132.589 228.818 132.569 228.608 132.614C227.277 133.026 226.134 133.892 225.38 135.061C224.625 136.229 224.306 137.625 224.48 139.005C205.207 155.023 189.237 173.796 174.105 193.686C172.766 195.452 175.726 198.123 176.918 196.252C190.21 175.396 207.206 157.442 225.441 140.841C226.243 141.17 227.316 140.788 227.128 139.664C226.948 138.731 227.055 137.766 227.435 136.896C227.815 136.025 228.45 135.289 229.257 134.785C229.316 134.83 229.379 134.869 229.445 134.903C246.548 141.188 275.055 153.734 264.9 177.409C264.733 177.866 264.734 178.368 264.903 178.824C265.071 179.281 265.396 179.664 265.82 179.904C263.268 182.981 260.431 185.81 257.346 188.355C254.827 190.397 251.95 191.997 249.307 193.863C249.226 193.766 249.126 193.687 249.014 193.629C248.901 193.572 248.779 193.536 248.653 193.526C248.527 193.516 248.4 193.53 248.279 193.569C248.159 193.607 248.047 193.669 247.951 193.751C238.167 202.631 210.798 229.295 223.294 243.819C224.301 241.982 225.147 240.063 225.824 238.081C222.062 225.882 238.515 208.069 247.285 198.359C247.457 198.472 247.655 198.541 247.861 198.56C248.067 198.578 248.274 198.546 248.464 198.465C256.585 195.434 263.726 186.736 268.515 179.857C268.612 179.694 268.661 179.507 268.656 179.317C268.651 179.128 268.592 178.943 268.486 178.786Z" fill="#050505"/>
<path d="M187.492 283.794C162.776 268.388 155.003 234.603 169.104 207.039C169.576 206.103 168.025 204.814 167.4 205.809C150.168 233.379 158.094 269.523 183.718 287.172C184.956 286.026 186.214 284.9 187.492 283.794Z" fill="#050505"/>
<path d="M285.848 251.846C273.805 261.714 262.205 273.207 249.325 281.387C247.91 285.242 245.25 288.831 241.954 292.15C260.235 284.806 276.842 270.642 288.973 255.506C290.442 253.676 287.847 250.21 285.848 251.846Z" fill="#050505"/>
<path d="M227.511 231.861C227.026 230.767 226.645 229.63 226.373 228.465C226.963 227.5 225.612 226.041 224.84 227.07C222.062 230.766 223.124 234.721 225.937 237.298C226.444 235.48 226.963 233.667 227.511 231.861Z" fill="#050505"/>
<path d="M327.978 228.512C314.922 213.6 292.742 210.634 275.197 218.679C274.183 219.144 275.197 220.615 276.129 220.256C294.063 213.43 311.784 218.243 325.867 230.572C327.459 231.967 329.388 230.125 327.978 228.512Z" fill="#050505"/>
<path d="M400.097 231.131L400.586 231.455C401.76 232.115 402.814 232.966 403.706 233.973C404.347 231.217 404.835 228.427 405.168 225.617C408.53 195.051 392.784 156.847 359.605 150.704C358.326 150.462 358.231 152.322 359.358 152.604C392.919 161.084 406.153 199.889 400.097 231.131Z" fill="#050505"/>
<path d="M380.305 267.905C370.109 277.945 357.04 285.265 342.757 290.409C340.292 291.297 341.931 294.787 344.237 294.381C359.617 291.65 373.199 283.294 383.678 271.919C382.478 270.646 381.352 269.306 380.305 267.905Z" fill="#050505"/>
<path d="M338.375 233.285C333.952 231.449 329.859 228.489 326.067 225.923C323.938 224.481 322.122 227.971 324.027 229.395C330.962 234.568 339.832 238.811 348 238.546C344.809 236.769 341.542 235.121 338.375 233.285Z" fill="#050505"/>
<path d="M349.162 184.435C353.703 190.397 358.538 197.011 361.304 204.179C362.04 204.211 362.77 204.313 363.486 204.485C364.102 204.347 364.748 204.437 365.303 204.738C362.596 198.029 357.955 191.691 353.225 186.16C351.798 185.772 350.431 185.192 349.162 184.435Z" fill="#050505"/>
<path d="M359.67 187.095C353.124 186.936 347.876 184.941 344.685 179.975C342.285 178.105 340.232 175.828 338.623 173.248C338.517 173.051 338.339 172.902 338.126 172.832C337.913 172.762 337.681 172.777 337.478 172.873C337.276 172.969 337.118 173.139 337.038 173.348C336.958 173.557 336.962 173.789 337.048 173.996C341.843 186.46 356.067 193.098 368.575 187.278C368.893 187.139 369.163 186.911 369.351 186.621C369.54 186.332 369.639 185.993 369.637 185.647C366.576 186.889 362.89 187.172 359.67 187.095Z" fill="#050505"/>
<path d="M369.018 189.473C367.514 189.543 365.998 189.579 364.5 189.767C363.002 189.955 361.646 190.455 360.184 190.714C359.14 190.897 359.712 192.58 360.632 192.55C362.2 192.497 363.746 192.709 365.35 192.55C366.789 192.403 368.216 192.144 369.637 191.909C371.058 191.674 370.244 189.42 369.018 189.473Z" fill="#050505"/>
<path d="M376.242 156.789C374.473 154.9 372.279 157.83 374.007 159.584C377.261 162.979 379.317 167.34 379.863 172.007C380.409 176.673 379.415 181.39 377.032 185.442C376.472 186.36 377.799 187.76 378.495 186.772C385.141 177.321 384.174 165.163 376.242 156.789Z" fill="#050505"/>
<path d="M356.191 245.396C341.996 243.63 330.62 232.167 319.822 222.728C319.403 222.363 319.044 222.934 319.362 223.316C329.087 234.497 342.22 245.519 357.164 246.543C356.822 246.161 356.509 245.778 356.191 245.396Z" fill="#050505"/>
<path d="M389.199 220.897L390.49 221.91C391.97 216.314 391.942 210.428 390.407 204.847C388.872 199.266 385.885 194.189 381.75 190.132C381.432 189.814 381.107 190.302 381.373 190.603C389.252 199.477 391.74 210.693 389.199 220.897Z" fill="#050505"/>
<path d="M323.679 225.335C313.654 216.09 299.081 218.667 288 224.475C280.876 228.212 274.572 233.214 267.949 237.752C265.537 239.405 262.612 241.471 259.463 243.283C259.629 243.536 259.734 243.824 259.77 244.125C259.828 244.316 259.863 244.514 259.876 244.713C264.623 242.083 269.04 238.728 272.319 236.416C287.021 226.058 305.344 213.977 322.588 226.7C322.678 226.771 322.781 226.824 322.891 226.856C323.002 226.888 323.117 226.898 323.232 226.885C323.346 226.872 323.456 226.837 323.557 226.781C323.657 226.726 323.746 226.651 323.818 226.562C323.889 226.472 323.943 226.369 323.974 226.259C324.006 226.149 324.016 226.033 324.003 225.919C323.99 225.805 323.955 225.695 323.899 225.595C323.844 225.495 323.769 225.406 323.679 225.335Z" fill="#050505"/>
<path d="M240.355 143.948C234.028 139.24 226.432 139.064 219.567 142.636C219.255 142.8 219.603 143.295 219.915 143.148C226.326 140.093 233.939 141.211 239.689 145.078C240.385 145.549 240.975 144.413 240.355 143.948Z" fill="#050505"/>
<path d="M262.854 177.456C262.854 167.199 256.638 158.419 250.033 151.116C249.732 150.78 249.308 151.233 249.538 151.575C254.049 158.377 259.227 165.463 260.117 173.831C261.073 182.852 256.98 191.485 247.662 193.704C246.217 194.045 247.196 196.17 248.5 195.964C257.558 194.528 262.842 186.254 262.854 177.456Z" fill="#050505"/>
<path d="M376.183 157.812C364.671 148.679 346.431 141.094 336.671 156.794C329.169 168.852 336.848 183.335 349.686 187.119C350.14 187.254 350.146 186.577 349.775 186.436C337.272 181.728 330.974 166.116 340.74 155.594C351.214 144.313 364.919 153.169 375.051 159.754C376.26 160.543 377.215 158.63 376.183 157.812Z" fill="#050505"/>
<path d="M349.816 288.602C338.8 291.662 327.606 291.085 317.605 285.1C310.121 280.622 305.662 272.307 298.35 267.846C308.682 268.123 318.572 260.043 321.226 250.192C321.355 249.715 320.636 249.197 320.424 249.756C316.419 259.172 309.454 263.486 300.532 264.551C309.531 258.937 315.423 249.191 316.325 237.904C316.36 237.428 315.617 237.151 315.541 237.704C313.807 250.245 306.223 259.602 295.49 264.233C297.311 262.699 299.009 261.024 300.567 259.225C307.703 250.986 310.711 240.747 310.593 230.025C310.593 229.654 309.92 229.513 309.914 229.936C309.699 238.416 306.927 246.634 301.959 253.517C297.123 260.272 287.735 269.741 278.6 265.875C276.984 265.186 276.294 267.334 277.662 268.152C278.95 268.924 280.381 269.426 281.869 269.629C283.358 269.831 284.872 269.729 286.319 269.329C286.469 269.396 286.634 269.423 286.797 269.406C289.527 269.066 292.205 268.4 294.776 267.423C295.018 267.475 295.254 267.499 295.495 267.54C304.648 274.79 309.708 285.259 320.854 290.203C330.19 294.322 341.288 294.969 350.818 291.162C352.287 290.556 351.32 288.184 349.816 288.602Z" fill="#050505"/>
<path d="M227.045 225.305C226.915 224.717 225.937 224.593 226.037 225.305C228.85 245.031 207.879 259.967 195.583 272.442C182.202 286.018 168.62 299.436 155.481 313.236C154.602 314.154 156.189 315.678 157.132 314.736C172.507 299.489 187.45 283.765 202.542 268.246C213.641 256.818 230.896 243.313 227.045 225.305Z" fill="#050505"/>
<path d="M163.885 264.639C155.245 271.754 147.13 279.422 139.027 287.119C139.316 287.201 139.617 287.26 139.906 287.343C140.042 287.392 140.174 287.451 140.301 287.519C148.876 280.905 157.403 274.255 165.506 267.04C166.727 265.951 165.182 263.568 163.885 264.639Z" fill="#050505"/>
<path d="M160.853 210.387C151.417 214.86 142.678 221.939 134.527 228.395C126.814 234.497 119.047 240.87 112.424 248.168C112.188 248.427 112.589 248.921 112.89 248.703C121.111 242.683 128.884 236.068 137.175 230.125C145.467 224.181 154.567 219.167 162.534 212.894C163.961 211.782 162.392 209.646 160.853 210.387Z" fill="#050505"/>
<path d="M260.613 231.372C257.93 221.109 248.512 208.757 236.817 209.887C236.381 209.934 236.475 210.475 236.817 210.611C243.77 213.106 249.432 215.766 253.743 222.174C257.918 228.383 259.369 235.904 259.15 243.36C258.72 257.983 252.711 272.378 245.162 284.712C230.371 308.887 207.908 326.494 185.333 342.677C183.659 343.854 185.617 346.855 187.297 345.649C214.325 326.229 241.877 304.085 255.193 272.295C260.477 259.666 264.151 244.896 260.613 231.372Z" fill="#050505"/>
<path d="M156.183 310.417C149.159 318.514 139.57 323.222 128.648 320.774C125.171 319.995 121.901 318.482 119.059 316.337C118.906 315.939 118.792 315.527 118.717 315.107C117.62 315.519 116.523 315.919 115.426 316.337C115.971 316.927 116.546 317.489 117.148 318.02C118.223 320.484 120.119 322.501 122.515 323.728C123.73 324.37 124.449 323.299 124.255 322.304C136.332 327.165 150.893 323.252 158.371 312.406C159.302 311.047 157.362 309.052 156.183 310.417Z" fill="#050505"/>
<path d="M69.5155 308.263C71.2578 298.587 75.8269 289.64 82.6489 282.546C82.8907 282.293 82.4601 281.764 82.1889 282.011C73.5165 289.944 68.0014 300.731 66.6553 312.394C67.5812 311.005 68.5188 309.622 69.5155 308.263Z" fill="#050505"/>
<path d="M192.009 338.758C164.922 354.647 134.362 373.396 101.709 362.715C96.1537 360.911 90.9711 358.12 86.4112 354.476C85.8922 355.306 85.3909 356.142 84.8896 356.977C87.0995 358.725 89.4552 360.28 91.9311 361.626C125.823 380.01 164.905 360.114 193.637 341.177C195.046 340.247 193.448 337.934 192.009 338.758Z" fill="#050505"/>
<path d="M361.292 200.595C344.591 198.782 330.325 213.583 333.291 230.213C333.38 230.737 334.123 230.802 334.117 230.213C333.946 214.142 345.481 202.555 361.616 203.331C363.433 203.408 362.843 200.76 361.292 200.595Z" fill="#050505"/>
<path d="M448.319 303.155C444.344 282.929 432.166 262.65 419.422 246.738C406.513 230.625 389.759 214.854 370.474 206.78C369.885 206.533 369.69 207.274 370.144 207.586C387.836 219.838 404.396 231.943 417.848 249.033C424.277 257.187 429.891 265.95 434.608 275.196C439.273 284.371 442.168 293.963 445.813 303.532C446.291 304.862 448.65 304.832 448.319 303.155Z" fill="#050505"/>
<path d="M390.72 279.816C377.575 263.339 361.263 245.92 342.291 235.127C341.861 234.88 341.619 235.439 341.931 235.715C355.814 248.02 370.014 259.219 382.11 273.225C387.768 279.781 393.053 286.65 397.938 293.798C400.887 298.112 416.261 318.102 406.507 320.009C404.832 320.339 406.035 322.681 407.545 322.498C424.176 320.468 394.689 284.824 390.72 279.816Z" fill="#050505"/>
<path d="M370.363 308.64C370.539 308.255 370.827 307.931 371.188 307.71C366.948 301.919 362.932 295.899 358.757 290.273C358.426 289.826 357.624 290.097 357.901 290.673C361.187 297.614 365.066 304.259 369.496 310.535C369.791 309.911 370.091 309.281 370.363 308.64Z" fill="#050505"/>
<path d="M448.278 301.884C447.606 300.048 444.934 300.707 445.559 302.69C453.179 326.682 426.747 341.141 406.254 335.692C403.703 335.008 401.216 334.11 398.817 333.009C398.794 334.049 398.689 335.086 398.504 336.11C403.12 338.19 408.047 339.496 413.089 339.976C433.989 341.883 456.469 324.293 448.278 301.884Z" fill="#050505"/>
<path d="M373.606 207.51C367.408 201.625 358.114 200.754 350.099 202.507C349.61 202.613 349.857 203.455 350.317 203.396C358.733 202.29 365.432 205.273 372.58 209.281C373.753 209.905 374.443 208.31 373.606 207.51Z" fill="#050505"/>
<path d="M129.792 316.402C113.008 304.962 98.9017 332.879 92.4795 343.795C80.9502 363.345 63.8892 396.482 58.3634 418.556C57.9978 420.015 60.5041 421.257 61.0821 419.639C67.1858 402.502 79.871 374.008 88.2098 357.766C92.6505 349.127 97.5453 340.7 102.812 332.567C108.668 323.546 116.924 311.688 129.308 317.52C130.134 317.926 130.417 316.825 129.792 316.402Z" fill="#050505"/>
<path d="M162.334 361.514C150.48 388.555 133.62 428.13 123.087 455.73C122.845 455.799 122.628 455.938 122.465 456.129C122.303 456.321 122.201 456.557 122.173 456.807L121.583 459.802C121.253 461.426 123.942 462.815 124.597 461.009C135.383 431.997 153.789 391.486 163.242 362.026C163.425 361.473 162.587 360.885 162.334 361.514Z" fill="#050505"/>
<path d="M165.152 299.542C143.887 275.908 108.166 271.248 82.4599 290.715C50.284 315.083 23.4393 370.601 11.7626 407.963C11.4854 408.852 12.8654 409.764 13.2192 408.758C24.4242 376.98 47.2587 333.579 69.7689 308.181C94.7264 280.022 135.176 273.737 161.815 303.696C164.398 306.609 167.576 302.237 165.152 299.542Z" fill="#050505"/>
<path d="M105.524 372.366C98.3886 387.266 86.6942 415.095 80.6022 430.461C80.0125 431.997 82.4894 433.533 83.1086 431.838C88.8172 416.29 102.812 389.308 107.453 373.425C107.795 372.254 106.15 371.06 105.524 372.366Z" fill="#050505"/>
<path d="M88.4635 443.048C82.5308 447.268 76.0791 450.457 68.5895 449.604C58.5345 448.427 51.1156 439.4 56.4233 429.596C56.9363 428.648 55.3205 427.336 54.6541 428.33C49.6354 435.869 51.8646 445.673 59.2481 450.881C69.3679 458.019 82.1298 453.706 90.8283 446.52C92.6624 445.037 90.4686 441.624 88.4635 443.048Z" fill="#050505"/>
<path d="M126.183 450.622C126.513 448.268 122.456 446.014 121.695 448.856C104.504 512.336 18.1141 498.365 4.40865 439.688C4.20814 438.841 2.83405 438.676 2.99328 439.688C7.71115 469.918 29.2718 493.11 60.4924 496.641C89.755 499.931 121.954 481.217 126.183 450.622Z" fill="#050505"/>
<path d="M85.3496 426.512C85.6444 424.441 82.5247 423.375 82.0117 425.641C79.2458 437.77 67.1091 444.978 55.0608 441.212C53.8813 440.853 53.5983 442.648 54.5654 443.084C68.0173 449.157 83.2147 441.454 85.3496 426.512Z" fill="#050505"/>
<path d="M391.669 284.094C374.844 289.167 367.75 308.034 362.3 323.04C354.318 345.27 349.883 368.613 349.155 392.215C349.09 394.216 352.352 395.305 352.405 393.063C352.93 372.007 355.943 351.363 362.336 331.273C367.985 313.459 374.767 294.493 392.412 285.607C393.22 285.177 392.442 283.865 391.669 284.094Z" fill="#050505"/>
<path d="M387.323 386.69C387.667 388.437 388.29 390.118 389.169 391.668C389.169 391.698 389.24 391.762 389.269 391.815C389.832 389.202 390.376 386.588 390.903 383.971C404.308 397.223 413.962 345.814 414.309 339.764C414.416 337.969 411.597 336.91 411.361 338.993C410.459 346.944 409.592 354.706 407.445 362.45C406.413 366.134 400.291 388.708 391.245 382.294C393.167 372.649 394.954 362.974 396.859 353.335C399.336 340.776 399.313 322.334 411.325 314.836C412.033 314.395 411.325 313.159 410.588 313.412C401.153 316.608 399.336 326.259 397.502 335.062C393.934 352.211 390.455 369.441 387.323 386.69Z" fill="#050505"/>
<path d="M416.438 421.28C416.739 420.998 417.064 420.745 417.352 420.457C419.65 418.043 421.793 415.488 423.769 412.806C423.704 412.689 423.645 412.565 423.568 412.453C427.985 405.856 429.696 397.818 431.158 389.503C434.614 369.906 438.288 350.022 440.004 330.19C440.081 329.342 438.884 328.913 438.648 329.837C434.897 344.266 432.491 359.096 429.867 373.761C427.242 388.426 426.529 406.416 414.05 416.514C413.808 416.71 413.625 416.968 413.519 417.261C392.212 430.261 367.85 426.23 350.907 404.903C350.376 404.238 349.545 404.821 349.94 405.556C362.843 429.931 394.866 436.504 416.438 421.28Z" fill="#050505"/>
<path d="M404.52 396.082C401.919 397.541 399.006 398.183 396.169 396.941C395.426 396.617 395.054 397.682 395.733 398.006C398.817 399.477 402.638 399.613 405.422 397.418C405.56 397.284 405.647 397.106 405.668 396.915C405.688 396.724 405.64 396.532 405.532 396.372C405.424 396.213 405.264 396.096 405.079 396.043C404.894 395.99 404.696 396.004 404.52 396.082Z" fill="#050505"/>
<path d="M409.562 395.752C408.536 395.305 407.463 394.981 406.401 394.628C405.516 394.328 405.41 395.635 406.035 396.011C406.949 396.553 407.846 397.141 408.795 397.606C410.081 398.242 410.747 396.27 409.562 395.752Z" fill="#050505"/>
<path d="M412.027 394.069C411.317 393.56 410.581 393.088 409.821 392.657C409.061 392.198 408.606 393.287 409.149 393.834C409.71 394.409 410.301 394.955 410.918 395.47C411.01 395.542 411.116 395.596 411.229 395.628C411.342 395.66 411.46 395.669 411.577 395.656C411.693 395.642 411.806 395.606 411.909 395.549C412.011 395.491 412.102 395.415 412.174 395.323C412.247 395.231 412.301 395.125 412.333 395.013C412.365 394.9 412.374 394.782 412.361 394.665C412.347 394.549 412.311 394.437 412.253 394.334C412.196 394.232 412.119 394.142 412.027 394.069Z" fill="#050505"/>
<path d="M419.375 373.043C419.57 371.736 417.606 371.083 417.281 372.496C415.96 378.323 414.336 384.078 412.416 389.738C412.18 390.397 413.13 391.027 413.495 390.326C416.413 384.935 418.401 379.092 419.375 373.043Z" fill="#050505"/>
<path d="M412.381 419.962C379.403 430.855 347.905 414.978 352.275 377.445C355.448 350.204 365.456 324.117 374.856 298.506C379.134 292.999 384.983 288.914 391.634 286.789C394.164 285.948 392.395 281.729 390.101 282.67C384.118 285.129 378.959 289.235 375.228 294.51C375.137 294.497 375.044 294.512 374.962 294.555C374.881 294.597 374.815 294.664 374.773 294.746C372.58 298.441 370.563 302.208 368.658 306.021C365.385 300.666 362.218 294.752 358.001 290.044C359.729 288.696 357.412 285.336 355.265 286.548C332.855 298.871 313.642 282.011 297.335 267.976L297.577 267.846C299.346 266.799 297.371 263.956 295.584 264.904C292.31 266.708 288.694 267.81 284.969 268.141C281.814 268.388 278.718 267.634 275.598 267.87C275.454 267.89 275.319 267.952 275.21 268.048C275.101 268.144 275.023 268.27 274.986 268.41C274.949 268.551 274.954 268.699 275.001 268.836C275.048 268.973 275.134 269.094 275.25 269.182C280.782 273.172 289.327 271.824 295.442 268.953C309.749 286.948 332.908 301.696 355.595 291.315C357.99 297.67 362.271 303.673 365.703 309.375C365.922 309.747 366.241 310.051 366.623 310.252C361.007 322.421 356.469 335.057 353.059 348.015C348.813 363.833 343.582 381.947 347.268 398.371C354.032 428.548 389.063 435.121 414.091 424.535C416.762 423.411 415.058 419.08 412.381 419.962Z" fill="#050505"/>
<path d="M413.024 342.342C413.032 341.953 412.947 341.568 412.776 341.218C413.625 339.988 412.652 337.316 410.647 337.098C408.318 336.857 406.012 336.757 403.665 336.716C402.599 336.669 401.531 336.692 400.469 336.787C400.522 336.339 400.598 335.886 400.645 335.445C400.74 334.633 399.389 333.827 399.077 334.815C398.805 335.68 398.552 336.581 398.286 337.434C398.141 337.536 398.036 337.685 397.989 337.855C397.942 338.026 397.955 338.208 398.027 338.37C393.663 352.946 390.484 368.382 387.872 383.253C387.483 385.454 390.82 386.554 391.41 384.177C391.522 383.73 391.623 383.265 391.729 382.817C405.776 394.681 412.77 348.892 413.024 342.342ZM392.124 381.099C395.385 367.564 398.281 353.57 400.068 339.764C401.386 340.214 402.742 340.545 404.119 340.753C405.582 341.035 407.068 341.265 408.518 341.471C408.153 351.899 405.363 379.198 392.124 381.099Z" fill="#050505"/>
<path d="M431.252 395.258C435.15 374.02 438.813 352.534 440.541 331.008C440.611 330.184 439.196 329.307 438.913 330.355C435.339 343.842 432.78 357.478 430.356 371.213C427.507 387.331 427.773 412.253 410.305 419.774C407.51 420.986 409.332 425.623 412.074 424.594C425.072 419.774 428.929 407.963 431.252 395.258Z" fill="#050505"/>
<path d="M426.275 255.153L425.951 254.564C425.568 253.864 424.654 254.494 425.031 255.188C425.137 255.388 425.243 255.588 425.355 255.777C425.739 256.483 426.653 255.847 426.275 255.153Z" fill="#050505"/>
<path d="M415.447 281.581C410.042 284.958 403.584 286.239 397.295 285.183C396.806 285.106 396.776 285.771 397.201 285.907C400.4 286.824 403.766 287 407.043 286.419C410.32 285.839 413.421 284.518 416.108 282.558C416.662 282.164 416.025 281.216 415.447 281.581Z" fill="#050505"/>
<path d="M423.964 254.488C422.878 253.487 421.894 255.047 422.743 256.018C428.705 262.915 427.879 271.789 420.567 277.321C420.236 277.574 420.608 278.109 420.962 277.909C429.596 273.201 431.211 261.22 423.964 254.488Z" fill="#050505"/>
<path d="M402.497 282.087C398.806 282.457 395.089 281.704 391.835 279.928C391.481 279.734 391.245 280.246 391.51 280.475C393.085 281.719 394.904 282.617 396.85 283.111C398.797 283.605 400.825 283.683 402.804 283.341C403.5 283.235 403.146 282.029 402.497 282.087Z" fill="#050505"/>
<path d="M423.757 253.705C423.73 253.605 423.684 253.51 423.62 253.428C423.556 253.346 423.477 253.277 423.386 253.226C423.295 253.176 423.195 253.143 423.091 253.132C422.988 253.12 422.883 253.129 422.783 253.159C422.683 253.188 422.59 253.238 422.51 253.304C422.429 253.37 422.363 253.451 422.315 253.543C422.266 253.635 422.237 253.736 422.229 253.84C422.22 253.943 422.232 254.048 422.265 254.147C425.862 267.093 419.316 279.828 405.487 282.04C405.068 282.105 405.34 282.758 405.729 282.7C419.505 280.669 429.065 267.234 423.757 253.705Z" fill="#050505"/>
<path d="M432.845 294.34C430.509 290.593 428.099 286.891 425.615 283.235C425.593 283.193 425.563 283.155 425.526 283.126C425.489 283.096 425.446 283.074 425.4 283.062C425.354 283.05 425.306 283.048 425.259 283.056C425.212 283.064 425.167 283.082 425.128 283.108C425.088 283.134 425.055 283.169 425.029 283.209C425.004 283.25 424.988 283.295 424.982 283.342C424.975 283.389 424.979 283.437 424.992 283.482C425.006 283.528 425.029 283.57 425.06 283.606C427.348 287.392 429.707 291.132 432.137 294.828C432.164 294.885 432.203 294.936 432.252 294.977C432.3 295.018 432.357 295.048 432.418 295.064C432.48 295.081 432.544 295.084 432.606 295.073C432.669 295.062 432.728 295.038 432.781 295.002C432.833 294.966 432.877 294.919 432.909 294.864C432.941 294.81 432.961 294.749 432.967 294.686C432.973 294.623 432.965 294.559 432.944 294.499C432.923 294.439 432.889 294.385 432.845 294.34Z" fill="#050505"/>
<path d="M436.955 300.648C436.654 300.366 436.33 300.819 436.601 301.089C445.447 309.987 444.386 322.863 436.011 331.584C435.487 332.132 436.418 333.273 437.02 332.761C447.051 323.893 446.42 309.587 436.955 300.648Z" fill="#050505"/>
<path d="M407.74 260.708C402.083 249.896 394.223 240.385 384.663 232.785C384.619 232.743 384.566 232.71 384.508 232.69C384.451 232.669 384.389 232.661 384.328 232.665C384.267 232.67 384.208 232.687 384.153 232.715C384.099 232.744 384.052 232.783 384.014 232.831C383.975 232.879 383.948 232.934 383.932 232.993C383.916 233.052 383.913 233.114 383.923 233.174C383.932 233.235 383.954 233.292 383.987 233.344C384.021 233.395 384.064 233.439 384.115 233.473C393.396 241.245 401.207 250.612 407.179 261.132C407.404 261.561 407.976 261.155 407.74 260.708Z" fill="#050505"/>
<path d="M368.204 223.769C358.981 216.784 349.032 211.494 337.308 210.581C336.27 210.499 336.606 212.076 337.503 212.188C349.091 213.594 357.966 218.585 367.833 224.405C368.24 224.64 368.552 224.028 368.204 223.769Z" fill="#050505"/>
<path d="M271.287 220.238C268.878 220.33 266.509 220.877 264.305 221.851C262.335 222.745 259.764 224.034 258.578 225.911C257.883 227.018 259.168 229.107 260.466 228.094C262.182 226.741 263.414 224.952 265.272 223.728C267.172 222.485 269.279 221.588 271.494 221.08C271.965 220.992 271.718 220.238 271.287 220.238Z" fill="#050505"/>
<path d="M200.077 277.103C198.142 276.815 196.208 276.562 194.268 276.303C193.678 276.22 193.613 277.115 194.15 277.191C196.126 277.462 198.095 277.739 200.047 277.98C200.602 278.039 200.554 277.174 200.077 277.103Z" fill="#050505"/>
<path d="M214.867 284.206C212.774 282.947 210.615 281.787 208.481 280.599C208.097 280.387 207.891 280.958 208.251 281.158C210.344 282.435 212.426 283.741 214.567 284.942C215.062 285.224 215.304 284.471 214.867 284.206Z" fill="#050505"/>
<path d="M218.122 287.031C217.833 286.725 217.533 287.184 217.774 287.466C223.672 294.228 224.91 303.355 222.215 311.747C221.902 312.718 223.395 313.718 223.819 312.624C227.322 303.626 224.68 293.863 218.122 287.031Z" fill="#050505"/>
<path d="M199.9 281.723C198.535 280.643 196.916 279.93 195.196 279.654C193.477 279.378 191.715 279.547 190.08 280.145C189.615 280.31 189.921 281.011 190.369 280.91C191.908 280.557 193.503 280.526 195.055 280.82C196.606 281.113 198.079 281.725 199.381 282.617C199.923 282.97 200.383 282.087 199.9 281.723Z" fill="#050505"/>
<path d="M206.428 283.247C206.039 282.994 205.72 283.612 206.062 283.871C216.229 291.521 221.555 303.714 219.662 316.349C219.473 317.62 221.537 318.308 221.714 316.884C223.401 303.667 217.657 290.573 206.428 283.247Z" fill="#050505"/>
<path d="M159.261 240.3C155.681 243.007 152.379 246.067 149.059 249.086C148.557 249.539 149.206 250.527 149.731 250.08C153.163 247.108 156.637 244.195 159.786 240.906C160.063 240.617 159.591 240.052 159.261 240.3Z" fill="#050505"/>
<path d="M126.95 266.422C123.801 270.135 120.25 273.631 117.325 277.521C116.895 278.109 117.75 278.939 118.263 278.374C121.56 274.779 124.349 270.636 127.427 266.852C127.657 266.569 127.203 266.14 126.95 266.422Z" fill="#050505"/>
<path d="M113.061 340.93C110.461 340.356 108.061 339.1 106.111 337.29C104.16 335.481 102.73 333.184 101.968 330.637C101.868 330.284 101.249 330.331 101.343 330.731C101.967 333.527 103.395 336.081 105.453 338.079C107.51 340.076 110.107 341.431 112.926 341.977C113.622 342.112 113.68 341.071 113.061 340.93Z" fill="#050505"/>
<path d="M194.498 306.25C182.426 319.974 168.361 331.408 151.913 339.517C151.583 339.676 151.943 340.212 152.273 340.053C168.821 332.114 183.647 321.221 195.377 307.051C195.807 306.533 194.97 305.715 194.498 306.25Z" fill="#050505"/>
<path d="M244.861 239.482C247.072 229.477 246.901 215.166 234.44 212.464C233.485 212.258 233.45 213.641 234.258 213.871C249.821 218.691 244.525 238.952 240.585 250.104C236.83 260.57 231.21 270.273 223.996 278.745C223.737 279.051 224.238 279.539 224.515 279.216C234.55 267.898 241.55 254.228 244.861 239.482Z" fill="#050505"/>
<path d="M231.061 150.292C213.982 164.746 198.518 181 184.938 198.771C184.643 199.159 185.263 199.765 185.581 199.359C199.154 181.662 214.526 165.414 231.451 150.874C231.751 150.61 231.362 150.033 231.061 150.292Z" fill="#050505"/>
<path d="M172.324 269.547C165.79 253.729 165.359 236.421 172.689 220.78C172.86 220.415 172.265 220.038 172.064 220.444C164.516 236.068 163.572 254.082 171.015 269.935C171.404 270.765 172.713 270.483 172.324 269.547Z" fill="#050505"/>
<path d="M51.6875 352.111C46.9697 352.04 42.2518 352.069 37.5339 352.111C37.0562 352.111 37.1978 352.834 37.6165 352.846C42.3344 352.97 47.0522 353.064 51.7701 353.058C52.4247 353.076 52.2478 352.122 51.6875 352.111Z" fill="#050505"/>
<path d="M79.1812 370.448C77.2077 366.375 74.2276 362.87 70.5215 360.264C66.8155 357.659 62.5056 356.037 57.9979 355.553C57.6618 355.512 57.709 356.077 57.9979 356.142C66.9206 357.907 73.7438 363.074 78.1845 370.924C78.5148 371.513 79.4938 371.095 79.1812 370.448Z" fill="#050505"/>
<path d="M53.1268 356.612C46.9287 356.218 40.7424 356.177 34.5148 356.148C34.102 356.148 34.2376 356.736 34.5856 356.771C40.8132 357.277 47.0349 357.772 53.2802 357.907C54.1235 357.942 53.864 356.66 53.1268 356.612Z" fill="#050505"/>
<path d="M164.97 355.435C154.131 361.626 142.725 365.91 130.223 367.099C124.119 367.688 118.086 367.193 112.053 366.764C111.855 366.317 111.553 365.924 111.173 365.618C110.792 365.311 110.344 365.098 109.865 364.998C105.69 364.41 101.644 364.339 97.5987 362.974C94.8742 362.05 92.3442 360.367 89.6373 359.343C89.6398 359.316 89.6398 359.288 89.6373 359.261C90.0265 358.178 88.4578 356.659 87.6381 357.825C87.4435 358.095 87.2666 358.372 87.0779 358.637L86.8538 358.59C86.3938 358.519 85.8335 358.843 85.9692 359.396C86.0164 359.596 86.0989 359.778 86.1579 359.984C82.6977 365.061 79.501 370.311 76.5806 375.714C76.6406 375.519 76.6237 375.309 76.5334 375.126C73.2486 367.664 66.7085 362.474 58.8768 360.414C58.4286 360.296 58.4227 360.944 58.7942 361.079C66.0833 363.651 71.4676 368.77 74.947 375.591C75.01 375.731 75.1054 375.853 75.2253 375.949C75.3452 376.044 75.4861 376.11 75.6365 376.141C75.7869 376.171 75.9424 376.165 76.0901 376.124C76.2379 376.083 76.3737 376.007 76.4862 375.903C69.7692 388.231 64.0664 401.29 58.2045 413.777C54.3476 422.016 44.446 439.282 58.4286 444.502C70.1407 448.88 80.579 435.274 85.4443 426.847C95.5052 409.434 102.6 389.979 111.098 371.766C129.887 375.803 152.167 368.712 167.394 359.131C169.629 357.742 167.17 354.176 164.97 355.435ZM88.6171 403.614C84.5243 412.812 80.1426 428.566 70.9899 434.027C66.6652 439.288 62.7887 436.706 59.3604 426.282C60.7482 423.069 62.1518 419.864 63.5711 416.667C66.4136 410.264 69.3092 403.889 72.2579 397.541C77.5006 386.254 83.4628 375.138 88.0509 363.533C91.2591 367.717 97.3098 370.389 102.995 371.289C98.2651 382.07 93.4057 392.839 88.6171 403.614Z" fill="#050505"/>
<path d="M132.257 369.006C132.316 368.688 131.838 368.453 131.667 368.776C128.831 374.796 127.132 381.652 125.11 387.99C124.909 388.614 125.882 389.238 126.118 388.543C128.241 382.176 130.918 375.597 132.257 369.006Z" fill="#050505"/>
<path d="M119.873 399.424C112.489 418.138 100.96 433.456 86.7122 447.485C86.0693 448.121 87.2016 449.492 87.8916 448.868C102.771 435.728 113.521 418.226 120.533 399.795C120.693 399.383 120.044 398.971 119.873 399.424Z" fill="#050505"/>
<path d="M47.0112 464.987C26.17 462.633 28.2164 430.602 30.1566 415.837C32.451 398.746 38.6031 382.397 48.1494 368.023C48.3558 367.717 47.8841 367.258 47.66 367.582C35.5291 385.307 28.6174 405.715 28.0277 427.236C27.6444 441.224 28.6941 465.063 47.2059 466.623C48.2556 466.711 47.9253 465.093 47.0112 464.987Z" fill="#050505"/>
<path d="M151.748 364.492C145.65 386.331 136.716 407.369 125.888 427.283C115.798 445.844 102.251 469.942 77.8542 469.353C77.3765 469.353 77.5121 470.077 77.9485 470.101C99.639 471.119 113.02 452.758 122.886 435.969C135.955 413.742 145.851 390.126 153.983 365.699C154.455 364.304 152.172 362.98 151.748 364.492Z" fill="#050505"/>
<path d="M182.385 283.882C175.662 292.227 168.496 300.601 159.975 307.221C132.139 280.74 86.4881 289.567 72.358 326.053C72.2283 326.376 72.7473 326.706 72.8947 326.341C79.0574 310.946 92.6272 298.588 108.833 294.493C126.272 290.085 145.615 295.946 158.158 308.616C156.678 309.693 155.169 310.729 153.6 311.682C148.101 315.094 141.993 317.414 135.613 318.514C129.403 319.55 123.777 318.514 117.608 317.89C116.948 317.82 117.072 318.75 117.461 318.985C127.657 325.035 141.947 321.498 151.801 316.49C165.43 309.569 175.155 297.541 185.003 286.254C186.318 284.753 183.718 282.229 182.385 283.882Z" fill="#050505"/>
<path d="M166.574 264.716C158.406 268.835 150.733 276.485 144.052 282.676C142.843 283.806 144.895 286.272 146.222 285.189C153.234 279.457 161.885 272.754 167.075 265.298C167.122 265.226 167.144 265.14 167.139 265.054C167.133 264.967 167.099 264.885 167.043 264.82C166.986 264.754 166.91 264.708 166.826 264.69C166.741 264.671 166.653 264.68 166.574 264.716Z" fill="#050505"/>
<path d="M437.22 275.002C429.377 258.978 419.092 241.412 405.705 228.442C411.75 204.903 405.21 173.796 382.953 160.602C370.628 148.832 349.073 137.834 337.431 156.836C329.936 169.07 337.773 186.942 352.086 188.09C352.417 190.273 353.856 192.08 355.035 193.975C356.091 195.646 357.258 197.217 358.467 198.771C349.663 198.935 340.646 200.93 334.406 207.598C330.319 211.97 328.409 218.032 329.476 223.663C313.376 204.538 281.89 210.193 261.656 221.109C257.965 214.048 250.888 208.598 243.044 207.645C243.994 206.527 244.896 205.356 245.81 204.279C247.238 202.596 248.606 200.86 249.938 199.118C270.579 194.875 276.736 170.477 266.775 153.264C261.126 143.495 250.923 136.045 240.237 132.667C233.998 130.701 225.559 130.684 224.085 137.557C223.791 137.523 223.493 137.549 223.209 137.633C222.925 137.717 222.661 137.857 222.433 138.045C200.295 155.029 179.471 179.333 167.458 205.75C166.973 205.633 166.462 205.689 166.013 205.909C163.509 207.086 161.024 208.294 158.559 209.534C120.256 223.81 83.5686 255.93 67.9289 294.51C67.5105 294.503 67.0979 294.608 66.7346 294.815C66.3713 295.023 66.0708 295.324 65.8648 295.687C54.4947 313.195 43.5021 330.937 33.0579 349.009C22.8732 366.664 11.7626 384.689 5.42293 404.138C-2.83335 429.525 -1.1821 462.48 24.6365 477.151C25.4267 477.598 26.0046 476.45 25.3559 475.927C-3.3818 452.935 4.87448 415.967 19.2876 387.266C34.3612 357.201 52.4188 328.371 71.0132 300.372C71.434 299.735 71.608 298.967 71.5026 298.212C94.9269 261.926 124.838 231.714 164.35 213.271C162.988 216.802 161.767 220.362 160.759 223.946C160.523 224.77 161.756 226.135 162.375 225.123C171.014 210.823 178.705 196.081 188.594 182.546C199.434 167.711 212.184 155.282 225.689 142.877C226.105 142.468 226.39 141.944 226.507 141.373C226.625 140.802 226.57 140.209 226.349 139.67C230.289 136.092 238.144 136.592 242.413 138.493C244.615 139.463 246.743 140.59 248.783 141.865C255.653 146.166 261.757 152.61 264.446 160.366C269.689 175.667 262.37 190.291 246.677 194.198C244.613 194.71 244.761 197.335 245.981 198.712C245.026 199.536 244.071 200.354 243.139 201.207C240.939 203.22 238.15 205.232 236.575 207.768C236.544 207.836 236.517 207.904 236.493 207.974C236.439 207.974 236.386 207.974 236.327 207.974C235.478 208.169 235.773 209.287 236.386 209.616C236.758 210.929 238.055 211.97 239.447 211.058C239.612 210.946 239.754 210.799 239.907 210.681C247.515 213.171 253.713 217.52 257.564 224.987C259.103 227.971 263.691 227.341 262.989 224.093C284.338 217.743 313.146 208.31 328.379 230.46C329.676 232.355 331.764 231.884 332.578 230.519C334.778 233.261 338.475 230.825 336.659 227.753C326.445 210.629 350.872 203.943 362.342 200.783C363.48 200.471 362.837 198.824 361.858 198.794C361.569 198.794 361.268 198.794 360.997 198.794C360.414 196.688 359.721 194.614 358.921 192.58C358.22 190.861 357.606 188.49 356.362 186.948C356.362 186.901 356.321 186.866 356.309 186.819C350.5 186.018 345.988 183.358 343.5 177.797C338.959 171.877 338.145 163.986 344.744 157.2C356.433 145.137 370.863 157.624 380.158 165.816C381.449 166.952 382.735 166.857 383.625 166.175C389.635 172.554 395.113 178.957 398.628 187.466C403.541 199.353 403.936 211.958 401.07 224.299C399.348 222.851 397.602 221.462 395.762 220.18C395.001 219.65 394.364 220.768 394.801 221.356C405.257 236.369 417.565 249.433 426.729 265.457C437.934 285.095 452.63 313.124 435.964 333.721C434.024 336.11 437.928 339.911 439.98 337.375C455.431 318.308 446.845 294.675 437.22 275.002Z" fill="#050505"/>
<path d="M182.544 284.488C182.585 283.658 182.294 282.846 181.736 282.229C177.36 277.338 171.71 271.259 165.748 268.07C165.354 267.717 164.867 267.484 164.345 267.398C163.822 267.313 163.286 267.378 162.799 267.587C159.007 269.429 155.558 272.99 152.408 275.797C149.849 278.074 146.039 280.546 145.025 283.894C144.989 284.051 144.989 284.214 145.025 284.371C144.925 284.603 144.913 284.863 144.991 285.104C145.069 285.344 145.232 285.548 145.45 285.677C153.228 290.385 160.04 293.433 165.766 300.895C165.848 300.977 165.935 301.053 166.025 301.125C165.956 301.32 165.946 301.532 165.997 301.734C166.048 301.935 166.158 302.116 166.313 302.255C166.468 302.394 166.661 302.484 166.867 302.513C167.073 302.542 167.283 302.51 167.47 302.419C167.7 302.296 167.918 302.143 168.148 302.019C168.512 301.991 168.864 301.879 169.178 301.693C169.491 301.506 169.756 301.249 169.953 300.942C172.268 299.314 174.49 297.56 176.611 295.687C179.235 293.498 182.55 291.338 184.378 288.431C184.601 288.064 184.73 287.647 184.753 287.219C184.777 286.79 184.695 286.362 184.513 285.972C184.332 285.583 184.058 285.244 183.714 284.985C183.371 284.726 182.969 284.556 182.544 284.488ZM168.903 297.052C164.539 291.038 157.274 285.018 149.637 283.976C151.889 282.8 154.001 281.034 155.911 279.692C159.19 277.427 162.988 275.102 165.719 272.119C169.163 277.333 174.264 282.193 178.604 286.142C178.702 286.213 178.805 286.278 178.911 286.336C176.912 288.031 175.178 290.232 173.45 292.062C171.917 293.686 170.348 295.322 168.903 297.052Z" fill="#050505"/>
<path d="M247.291 282.358C233.043 300.348 219.491 317.414 201.321 331.79C184.354 345.237 165.394 354.594 146.558 365.022C145.786 365.446 146.558 366.605 147.295 366.44C152.755 365.197 158.122 363.581 163.36 361.603C149.177 407.239 125.652 446.026 99.8866 486.125C99.2497 487.114 100.529 488.438 101.432 487.531C135.412 453.458 157.197 405.609 170.619 360.067C170.754 359.608 170.784 359.126 170.708 358.654C204.069 344.025 235.337 315.607 252.197 285.871C253.701 283.206 249.331 279.786 247.291 282.358Z" fill="#050505"/>
<path d="M301.104 235.768C301.139 235.033 299.966 234.591 299.924 235.45C298.592 251.022 289.097 258.672 275.834 264.61C273.381 265.71 274.884 269.4 277.403 268.823C292.075 265.451 300.449 249.703 301.104 235.768Z" fill="#050505"/>
<path d="M242.278 92.6913C230.914 75.4077 220.511 56.1115 207.177 40.3167C202.772 35.0969 194.757 39.6223 198.779 45.7837C210.155 63.185 225.777 78.8209 239.141 94.751C240.768 96.693 243.782 94.9923 242.278 92.6913Z" fill="white"/>
<path d="M298.958 6.0731C298.61 -0.6591 286.514 -2.7894 285.919 4.86083C283.89 30.9128 287.812 58.7361 289.221 84.8292C289.351 87.1832 293.585 87.9423 293.803 85.2588C295.873 59.3599 300.332 32.0015 298.958 6.0731Z" fill="white"/>
<path d="M366.116 33.0138C359.906 54.7449 351.466 75.7787 340.929 95.7809C339.95 97.6405 343.111 99.7002 344.432 98.0289C358.618 80.1176 370.339 60.3935 379.285 39.3811C382.635 31.5308 368.463 24.8633 366.116 33.0138Z" fill="white"/>
<path d="M215.999 114.901C194.68 113.724 172.683 117.254 153.788 127.665C147 131.378 155.257 139.793 161.254 137.004C179.347 128.565 196.78 121.851 216.689 118.955C219.679 118.52 218.606 115.036 215.999 114.901Z" fill="white"/>
<path d="M404.496 141.806C394.111 129.401 377.887 119.679 361.905 116.954C359.546 116.548 359.151 120.344 360.968 121.256C375.629 128.642 386.881 136.492 398.369 148.244C402.945 152.916 408.382 146.449 404.496 141.806Z" fill="white"/>
<path d="M358.09 151.769C350.559 155.702 343.914 161.132 338.564 167.723C338.263 168.087 338.894 168.599 339.201 168.24C344.759 161.932 351.493 156.762 359.028 153.016C359.853 152.593 358.875 151.386 358.09 151.769Z" fill="#050505"/>
<path d="M362.796 153.393C353.851 157.797 345.875 163.937 339.336 171.453C338.965 171.883 339.69 172.454 340.085 172.042C347.121 165.157 355.138 159.347 363.875 154.799C364.83 154.329 363.698 152.94 362.796 153.393Z" fill="#050505"/>
<path d="M366.7 155.612C356.946 159.89 348.1 167.428 340.64 174.925C340.245 175.32 340.988 175.908 341.389 175.514C349.48 168.099 358.402 162.956 367.626 157.206C368.481 156.683 367.561 155.235 366.7 155.612Z" fill="#050505"/>
<path d="M355.1 150.951C349.067 153.34 344.001 158.013 339.902 162.944C339.59 163.321 340.221 163.827 340.551 163.479C345.086 158.772 350.329 155.617 355.813 152.169C356.462 151.757 355.766 150.686 355.1 150.951Z" fill="#050505"/>
<path d="M371.335 156.889C361.068 162.273 352.075 169.388 343.17 176.72C342.774 177.044 343.293 177.703 343.683 177.403C352.776 170.341 362.761 164.545 372.515 158.466C373.541 157.86 372.279 156.382 371.335 156.889Z" fill="#050505"/>
<path d="M375.983 159.543C365.031 165.127 353.573 172.436 344.561 180.834C344.131 181.234 344.868 181.899 345.31 181.622C355.979 174.914 366.358 167.675 377.026 160.931C377.923 160.361 376.832 159.113 375.983 159.543Z" fill="#050505"/>
<path d="M379.038 163.362C367.986 168.37 355.997 175.484 347.54 184.282C347.168 184.671 347.823 185.271 348.23 185.012C353.502 181.616 358.255 177.497 363.616 174.219C368.977 170.941 374.508 168.023 380.022 165.051C380.966 164.545 379.946 162.956 379.038 163.362Z" fill="#050505"/>
<path d="M381.632 168.223C372.279 172.06 363.899 177.986 356.138 184.341C355.672 184.718 356.268 185.477 356.728 185.147C364.984 179.416 373.783 174.708 382.381 169.553C383.101 169.105 382.334 167.928 381.632 168.223Z" fill="#050505"/>
<path d="M380.919 173.013C373.175 176.15 365.947 180.429 359.476 185.706C358.963 186.124 359.606 186.936 360.148 186.595C367.225 182.199 374.379 178.309 381.839 174.596C382.735 174.143 381.768 172.672 380.919 173.013Z" fill="#050505"/>
<path d="M379.798 176.579C374.491 179.31 369.619 183.146 364.677 186.454C364.194 186.777 364.789 187.495 365.267 187.225C370.439 184.241 376.071 181.534 380.866 177.986C381.715 177.344 380.665 176.132 379.798 176.579Z" fill="#050505"/>
<path d="M379.869 179.516C375.652 181.281 371.742 184.323 367.891 186.777C366.983 187.366 368.092 188.69 368.959 188.201C372.845 186.012 377.386 184.012 380.842 181.187C381.62 180.551 380.83 179.109 379.869 179.516Z" fill="#050505"/>
</svg>
