<svg width="195" height="45" viewBox="0 0 195 45" fill="none" xmlns="http://www.w3.org/2000/svg">
<path d="M11.8547 0.657379C8.71287 0.661685 5.70095 1.91168 3.47934 4.1333C1.25772 6.35491 0.00772363 9.36683 0.00341797 12.5087V18.322C0.00341797 18.5108 0.00341797 18.6996 0.00341797 18.8916C0.0747626 20.3164 0.405685 21.7162 0.979904 23.0222C1.79058 24.8927 3.06832 26.5235 4.69055 27.7581C6.74909 29.3248 9.26456 30.1732 11.8514 30.1733C13.298 30.1722 14.7321 29.9064 16.0829 29.3888L16.4084 29.2684V27.3382C16.4072 26.1683 15.9562 25.0437 15.1487 24.1972L14.9046 23.9401L14.5791 24.093C13.7239 24.4959 12.7903 24.7048 11.8449 24.7048C10.8996 24.7048 9.96596 24.4959 9.11078 24.093C8.01515 23.5705 7.09032 22.7478 6.44383 21.7204C5.79734 20.6931 5.45573 19.5033 5.45872 18.2895V12.5087C5.45872 10.8149 6.13155 9.19058 7.3292 7.99293C8.52685 6.79528 10.1512 6.12244 11.8449 6.12244C13.5387 6.12244 15.163 6.79528 16.3607 7.99293C17.5583 9.19058 18.2312 10.8149 18.2312 12.5087V15.2396L18.4818 15.3795C20.1705 16.3252 21.6429 17.6135 22.8044 19.1618L23.6409 20.2685L23.6832 18.8754C23.6832 18.6931 23.6832 18.5108 23.6832 18.322V12.5087C23.6798 9.37051 22.4332 6.36153 20.2163 4.14038C17.9994 1.91923 14.9928 0.666848 11.8547 0.657379Z" fill="white"/>
<path d="M23.6895 26.7653C23.6234 25.3419 23.2992 23.9423 22.7326 22.6348C22.1047 21.1869 21.1947 19.8785 20.0558 18.7859C18.9169 17.6934 17.5718 16.8386 16.099 16.2714C13.3671 15.2255 10.3452 15.2255 7.61333 16.2714L7.28784 16.3918V18.322C7.28897 19.4919 7.73999 20.6165 8.5475 21.463L8.79163 21.7201L9.11712 21.5672C9.97168 21.1621 10.9056 20.9519 11.8513 20.9519C12.797 20.9519 13.7309 21.1621 14.5854 21.5672C15.6806 22.0894 16.6051 22.9117 17.2515 23.9384C17.898 24.9651 18.2399 26.1542 18.2375 27.3675V33.1483C18.2375 34.842 17.5647 36.4664 16.367 37.664C15.1694 38.8617 13.545 39.5345 11.8513 39.5345C10.1575 39.5345 8.5332 38.8617 7.33555 37.664C6.1379 36.4664 5.46506 34.842 5.46506 33.1483V30.4206L5.21768 30.2807C3.52914 29.3347 2.05684 28.0464 0.895112 26.4984L0.0781157 25.408L0.0162758 26.7686C0.0162758 26.9541 0 27.1462 0 27.3382V33.1483C9.36733e-08 36.2914 1.24861 39.3059 3.47116 41.5284C5.6937 43.7509 8.70812 44.9996 11.8513 44.9996C14.9944 44.9996 18.0089 43.7509 20.2314 41.5284C22.4539 39.3059 23.7026 36.2914 23.7026 33.1483V27.3382C23.7026 27.1462 23.7026 26.9541 23.6863 26.7914L23.6895 26.7653Z" fill="white"/>
<path d="M53.6383 14.9889C55.689 17.02 56.7143 20.1458 56.7143 24.3664V43.8961H50.621V25.753C50.621 22.9321 50.008 20.7816 48.782 19.3017C47.5559 17.8218 45.7201 17.0775 43.2746 17.0688C40.7379 17.0688 38.7068 17.8283 37.1813 19.3473C35.6558 20.8663 34.8963 22.9972 34.9028 25.74V43.8929H28.79V1.68918H34.8801V18.8167H35.0623C35.3484 17.7208 35.873 16.7016 36.5987 15.8319C37.5541 14.6642 38.76 13.7264 40.127 13.088C41.8433 12.2888 43.7224 11.901 45.6149 11.9553C48.9132 11.9553 51.5877 12.9665 53.6383 14.9889Z" fill="white"/>
<path d="M81.6828 12.6063V17.7329C80.9292 17.6128 80.1674 17.5519 79.4043 17.5506C76.3903 17.5506 73.9979 18.4761 72.2272 20.3271C70.4565 22.178 69.5668 24.8124 69.5581 28.2301V43.9092H63.4551V12.5445H69.5451V19.7835H69.6655C70.2047 17.7322 71.3369 15.8855 72.9205 14.4747C74.5284 13.0295 76.6593 12.3058 79.3132 12.3036C80.1141 12.2783 80.914 12.3805 81.6828 12.6063Z" fill="white"/>
<path d="M86.806 6.06059C86.4637 5.74 86.1909 5.35259 86.0044 4.92233C85.8179 4.49206 85.7217 4.02811 85.7217 3.55916C85.7217 3.09021 85.8179 2.62626 86.0044 2.196C86.1909 1.76573 86.4637 1.37832 86.806 1.05773C87.1374 0.722634 87.5321 0.456603 87.967 0.275044C88.402 0.0934848 88.8686 0 89.34 0C89.8113 0 90.2779 0.0934848 90.7129 0.275044C91.1479 0.456603 91.5425 0.722634 91.8739 1.05773C92.2162 1.37832 92.489 1.76573 92.6755 2.196C92.862 2.62626 92.9583 3.09021 92.9583 3.55916C92.9583 4.02811 92.862 4.49206 92.6755 4.92233C92.489 5.35259 92.2162 5.74 91.8739 6.06059C91.5425 6.39569 91.1479 6.66171 90.7129 6.84327C90.2779 7.02483 89.8113 7.11832 89.34 7.11832C88.8686 7.11832 88.402 7.02483 87.967 6.84327C87.5321 6.66171 87.1374 6.39569 86.806 6.06059ZM86.3243 12.5445H92.424V43.9059H86.3243V12.5445Z" fill="white"/>
<path d="M124.02 14.9889C126.071 17.02 127.096 20.1458 127.096 24.3664V43.8961H121.003V25.753C121.003 22.9321 120.39 20.7816 119.164 19.3017C117.938 17.8218 116.099 17.0775 113.647 17.0688C111.11 17.0688 109.079 17.8283 107.553 19.3473C106.028 20.8663 105.268 22.9972 105.275 25.74V43.8929H99.1719V12.5444H105.262V18.8167H105.444C105.73 17.7208 106.255 16.7016 106.981 15.8319C107.936 14.6642 109.142 13.7264 110.509 13.088C112.225 12.2888 114.104 11.901 115.997 11.9553C119.295 11.9553 121.97 12.9665 124.02 14.9889Z" fill="white"/>
<path d="M156.407 43.9059L144.644 29.9747L139.947 34.7986V43.9124H133.85V1.68918H139.947V28.2854L154.662 12.5444H161.54L148.452 26.0558L163.226 43.9059H156.407Z" fill="white"/>
<path d="M166.839 6.06056C166.496 5.74048 166.222 5.35323 166.035 4.9229C165.848 4.49257 165.751 4.02836 165.751 3.55913C165.751 3.0899 165.848 2.62569 166.035 2.19536C166.222 1.76503 166.496 1.37779 166.839 1.0577C167.17 0.722703 167.564 0.45674 167.999 0.275223C168.434 0.0937073 168.9 0.000244141 169.371 0.000244141C169.842 0.000244141 170.309 0.0937073 170.743 0.275223C171.178 0.45674 171.572 0.722703 171.904 1.0577C172.247 1.37779 172.52 1.76503 172.707 2.19536C172.894 2.62569 172.991 3.0899 172.991 3.55913C172.991 4.02836 172.894 4.49257 172.707 4.9229C172.52 5.35323 172.247 5.74048 171.904 6.06056C171.572 6.39556 171.178 6.66152 170.743 6.84304C170.309 7.02455 169.842 7.11802 169.371 7.11802C168.9 7.11802 168.434 7.02455 167.999 6.84304C167.564 6.66152 167.17 6.39556 166.839 6.06056ZM166.357 12.5444H172.447V43.9059H166.357V12.5444Z" fill="white"/>
<path d="M194.955 39.3848V44.1468C193.659 44.2887 192.354 44.3496 191.05 44.3291C188.315 44.3291 186.164 43.6661 184.595 42.3403C183.026 41.0144 182.243 38.8835 182.245 35.9476V17.3097H177.092V12.5445H182.219V4.64468H188.309V12.5445H194.519V17.3097H188.309V34.9223C188.309 36.4868 188.641 37.6217 189.305 38.3269C189.969 39.0322 191.065 39.3848 192.592 39.3848H194.955Z" fill="white"/>
</svg>
